<svg xmlns="http://www.w3.org/2000/svg"><symbol id="cancel" viewBox="0 0 500 500"><defs><style>.cls-1{fill:#161616}</style></defs><path d="M336.34 263.27l78.19 78.19a18.74 18.74 0 0 1 0 26.52L399 383.5a18.77 18.77 0 0 1-26.53 0l-78.17-78.2a18.77 18.77 0 0 0-26.53 0l-78.19 78.2a18.77 18.77 0 0 1-26.53 0L147.54 368a18.75 18.75 0 0 1 0-26.52l78.19-78.19a18.75 18.75 0 0 0 0-26.53l-78.19-78.2a18.74 18.74 0 0 1 0-26.52l15.51-15.52a18.77 18.77 0 0 1 26.53 0l78.19 78.2a18.77 18.77 0 0 0 26.53 0l78.19-78.2a18.77 18.77 0 0 1 26.53 0L414.53 132a18.74 18.74 0 0 1 0 26.52l-78.19 78.2a18.77 18.77 0 0 0 0 26.55z" class="cls-1"/></symbol><symbol id="down" viewBox="0 0 500 500"><defs><style>.cls-1{fill:#161616}</style></defs><path d="M438.9 178.13a21 21 0 0 1 0 29.61L305.23 341.4l-26.6 26.6a21 21 0 0 1-29.63 0L88.75 207.74a20.94 20.94 0 0 1 0-29.61l11.79-11.8a20.94 20.94 0 0 1 29.61 0L249 285.2a20.93 20.93 0 0 0 29.61 0L397.5 166.34a20.92 20.92 0 0 1 29.6 0zM299.24 310.97l.42.42m-29.18 85.88l-.53-.54m-45.45-44.37l.54-.54m44.91 44.91l-.54.54" class="cls-1"/></symbol><symbol id="checkout" viewBox="0 0 500 500"><defs><style>.cls-1{fill:#161616}.cls-2{fill:none;stroke:#161616;stroke-linecap:round;stroke-linejoin:round;stroke-width:31px}</style></defs><path d="M447.5 153.22H127.2a24.42 24.42 0 0 0-23.38 31.47l29.4 97.54a18.2 18.2 0 0 0 17.42 12.94H422.1a18.2 18.2 0 0 0 17.32-12.62l31.33-97.43a24.42 24.42 0 0 0-23.25-31.9zM162 201.45a21.11 21.11 0 1 1 19.93 20 21.12 21.12 0 0 1-19.93-20zm52.5 73.91a21.12 21.12 0 1 1 18.84-18.85 21.12 21.12 0 0 1-18.8 18.85zm23.5-73.93a21.12 21.12 0 1 1 19.92 20 21.13 21.13 0 0 1-19.92-20zm50.33 74a21.11 21.11 0 1 1 21.13-21.11 21.11 21.11 0 0 1-21.13 21.15zm25.72-77.31a21.12 21.12 0 1 1 23.15 23.2 21.19 21.19 0 0 1-23.15-23.16zm48.06 77.2a21.12 21.12 0 1 1 23.21-23.17 21.18 21.18 0 0 1-23.21 23.21zm37.74-53.93a21.13 21.13 0 1 1 22.32-21.09 21.25 21.25 0 0 1-22.32 21.13z" class="cls-1"/><path d="M28.06 83.36h58.49l41.43 127.54" class="cls-2"/><circle cx="172.22" cy="402.11" r="34.87" class="cls-1"/><circle cx="402.48" cy="402.11" r="34.87" class="cls-1"/><path d="M437.35 340h-315l33.34-89.66" class="cls-2"/></symbol><symbol id="hamburger" viewBox="0 0 500 500"><defs><style>.cls-1{fill:#161616}</style></defs><rect width="357.62" height="68" x="78.02" y="107" class="cls-1" rx="28.57" ry="28.57"/><rect width="357.62" height="68" x="78.02" y="216" class="cls-1" rx="28.57" ry="28.57"/><rect width="357.62" height="68" x="78.02" y="325" class="cls-1" rx="28.57" ry="28.57"/></symbol><symbol id="checkmark" viewBox="0 0 500 500"><defs><style>.cls-1{fill:#161616}</style></defs><path d="M252.63 350.42l.52.43-20.56 25.29a17.1 17.1 0 0 1-24.05 2.49L91.2 283.27a17.09 17.09 0 0 1-2.48-24l9.77-12a17.09 17.09 0 0 1 24.05-2.48l91.53 74.37 158.64-195.3a17.11 17.11 0 0 1 24.06-2.49l12 9.78a17.1 17.1 0 0 1 2.48 24z" class="cls-1"/></symbol><symbol id="facebook-icon" viewBox="0 0 500 500"><defs><style>.cls-1{fill:#161616}</style></defs><path d="M287.52 126.37v53.31l70.07.51-10.16 74.13h-58.9V430h-72.6V254.32H155.5v-77.18h58.9C212.37 30.91 279.9 37 357.59 41.07v65s-28.95-2-49.76.5-20.31 19.8-20.31 19.8z" class="cls-1"/></symbol><symbol id="twitter-icon" viewBox="0 0 500 500"><defs><style>.cls-1{fill:#161616}</style></defs><path d="M421 166.58l-.11.08c3.94 24.9.45 54.6-13.71 90C324.2 464 113.64 416.54 65.26 373.23c87.54-.46 120.25-32.72 120.25-32.72C115 327.61 109 283.38 109 283.38c17.88 1 30-.12 38.14-2-36.57-11.23-55.32-34.28-67.14-80.01a154 154 0 0 0 50 10.85c-1-.81-2-1.67-3-2.56-57.14-52.07-24-106.9-24-106.9s16 41.73 94.59 68.52c19.22 6.55 42.16 12.22 69.53 16.16a77.42 77.42 0 0 1 125.39-79.25c1.62 1.78 3.18 3.61 4.67 5.47.28 0 .57-.09.84-.16 22.3-4.29 52.17-20 52.17-20s-10.31 29.8-33.46 44.43c15.62-2.7 35.36-7.6 44.05-12.4A207.43 207.43 0 0 1 421 166.58z" class="cls-1"/></symbol></svg>