<svg id="Layer_1" data-name="Layer 1" xmlns="http://www.w3.org/2000/svg" viewBox="0 0 32 32"><defs><style>.cls-1{fill:#191919;}.cls-2{fill:#e5e5e5;}</style></defs><title>32</title><path class="cls-1" d="M32,16a16,16,0,0,1-7.46,13.53,15,15,0,0,1-1.57.88c-.33.16-.66.3-1,.44-.53.21-1.07.39-1.61.55a16.14,16.14,0,0,1-8.79,0c-.52-.15-1-.33-1.54-.53S9,30.38,8.45,30.11A16,16,0,0,1,16,0c.52,0,1,0,1.55.07a15.75,15.75,0,0,1,6.61,2.17A16,16,0,0,1,32,16Z"/><path class="cls-2" d="M8.45,30.11a.77.77,0,0,0,.16-.29l0-.25.14-.8,4.29,0-1.29.64s-1.49,1.21-1.6,1.36l-.07.12c.51.2,1,.38,1.54.53.37-.2.95-.53,1.2-.69s2.76-1.28,2.76-1.28l1.24.08a4.55,4.55,0,0,1,1.19.37c.41.2,1.59,1,2.4,1.54.54-.16,1.08-.34,1.61-.55l-1.16-1.19-1.34-.76a26.59,26.59,0,0,1,4.06.32l0,.17s-.71,0-.75.57a.62.62,0,0,0,.16.45,15,15,0,0,0,1.57-.88h0l0-.18h-.08v-.1l.29-.06-.14-.7-.53-.28s-1.22-.38-1.57-.46-5.21-.32-5.21-.32l-.14-.14,0-2.41L17,24.79v-2.1l-.14,0v-.08L19,22.15l2.57.42.27.25,1.08-.11,0-1.09,1.16-.26a1.27,1.27,0,0,0,.32-.59c.1-.4.22-2.66.22-2.66l.35-2.87L25,14.15l-.23-.7s-.5-.27-.5-.27.4-2.73.44-3.1,1.17-2.92,1.33-3.6a2.55,2.55,0,0,0-.46-1.6l-.08-.22A6.25,6.25,0,0,0,25,4.1a7.82,7.82,0,0,1-.63-1.17l-.23-.69A15.75,15.75,0,0,0,17.55.07a4.66,4.66,0,0,0-.39,1,11.29,11.29,0,0,1-1.48,2.34s-1.08.56-2.14,1.06a2,2,0,0,0-1.09,2.19,22.76,22.76,0,0,1,1.16,3.12,10,10,0,0,1-1,2.72,19.5,19.5,0,0,0-1.37,3.2,2.86,2.86,0,0,0,.57,1.82s-.33.61-.35.63-3.18-1.47-3.18-1.47l.16-1.82,1.64-.19.06-.36-.46-.21-2.58-.42s-1.67.32-1.81.72,1.79.5,1.79.5l0,2s-.15.14-.59.47a5.21,5.21,0,0,0-1,2.56C5.29,20.73,7,21.66,7,21.66s.82,0,1.3,0,3.45.53,3.45.53l0,.22.73.21.15-.27,1.95.41a4.22,4.22,0,0,0-.16.92c0,.32,1.22.47,1.22.47l0,.53-.16.05-.12,2.37-.06.11-.11.17H10.11l-2.31.59-.28.74.24.07-.06.09a2.34,2.34,0,0,0-.54.12.65.65,0,0,0-.2.24Z"/></svg>