<svg id="Layer_1" data-name="Layer 1" xmlns="http://www.w3.org/2000/svg" viewBox="0 0 64 64"><defs><style>.cls-1{fill:#191919;}.cls-2{fill:#e5e5e5;}</style></defs><title>64</title><path class="cls-1" d="M64,32A32.15,32.15,0,0,1,45.93,60.82c-.65.31-1.32.61-2,.88a31.28,31.28,0,0,1-3.22,1.1,32,32,0,0,1-20.64-1.1,32.82,32.82,0,0,1-3.18-1.48,31,31,0,0,1-3-1.82A32,32,0,0,1,32,0c1,0,2.08.05,3.09.15A32,32,0,0,1,64,32Z"/><path class="cls-2" d="M16.89,60.22a2,2,0,0,0,.34-.58l-.12-.5.28-1.59L26,57.46l-2.57,1.29s-3,2.41-3.21,2.72a1.44,1.44,0,0,0-.13.23,31.93,31.93,0,0,0,3.08,1.06c.73-.41,1.89-1.06,2.39-1.39.76-.5,5.52-2.55,5.52-2.55l2.49.16a8.92,8.92,0,0,1,2.36.75c.83.39,3.2,2,4.8,3.07a31.28,31.28,0,0,0,3.22-1.1l-2.31-2.37L39,57.81c2.26-.24,8.11.63,8.11.63l.06.33s-1.42,0-1.5,1.14a1.29,1.29,0,0,0,.31.91,32.16,32.16,0,0,0,3.15-1.76l0,0,.07-.35-.18,0v-.2l.58-.13-.27-1.39-1.07-.57s-2.45-.74-3.13-.9-10.44-.65-10.44-.65l-.27-.27.07-4.84L34,49.58l0-4.2-.28-.05v-.17L38,44.31l5.15.83.54.49,2.15-.21,0-2.19,2.32-.51a2.57,2.57,0,0,0,.65-1.19c.19-.79.42-5.32.42-5.32l.7-5.73L50,28.29s-.44-1.31-.47-1.38a7,7,0,0,0-1-.54s.8-5.47.87-6.2S51.78,14.33,52.1,13s-.92-3.2-.92-3.2L51,9.32a12.23,12.23,0,0,0-1-1.13,16.61,16.61,0,0,1-1.26-2.34l-.45-1.37A31.68,31.68,0,0,0,35.09.15,9.45,9.45,0,0,0,34.32,2c-.33,1.37-3,4.68-3,4.68S29.2,7.84,27.07,8.84a4,4,0,0,0-2.16,4.38,49.28,49.28,0,0,1,2.31,6.23c.15,1.21-2.06,5.45-2.06,5.45s-2.43,4.68-2.73,6.4S23.55,35,23.55,35s-.66,1.2-.68,1.26-6.36-3-6.36-3l.32-3.65,3.27-.36.11-.72-.9-.42-5.18-.86s-3.34.65-3.6,1.45,3.57,1,3.57,1l0,3.9a13.77,13.77,0,0,1-1.19.95c-.88.65-1.71,3.3-2,5.12S14,43.32,14,43.32s1.65-.06,2.61,0,6.89,1.06,6.89,1.06l.05.43,1.48.42.28-.54,3.91.82a9.13,9.13,0,0,0-.32,1.84c0,.64,2.44.94,2.44.94l-.08,1.07L31,49.4l-.25,4.74-.11.23-.22.33H20.21l-4.6,1.17L15,57.36l.48.14-.13.18a5.06,5.06,0,0,0-1.07.23,1.72,1.72,0,0,0-.4.49Z"/></svg>