<svg id="Layer_1" data-name="Layer 1" xmlns="http://www.w3.org/2000/svg" viewBox="0 0 16 16"><defs><style>.cls-1{fill:#191919;}.cls-2{fill:#e5e5e5;}</style></defs><title>16</title><path class="cls-1" d="M16,8a8,8,0,0,1-3.73,6.77,6.63,6.63,0,0,1-.79.43,4.46,4.46,0,0,1-.5.22,7.58,7.58,0,0,1-.8.28A7.86,7.86,0,0,1,8,16a8,8,0,0,1-2.21-.31c-.27-.08-.52-.16-.77-.26a7.33,7.33,0,0,1-.8-.38,6.36,6.36,0,0,1-.74-.45A8,8,0,0,1,8,0a6.51,6.51,0,0,1,.77,0,7.8,7.8,0,0,1,3.31,1.08A8,8,0,0,1,16,8Z"/><path class="cls-2" d="M4.22,15.05a.8.8,0,0,0,.09-.14l0-.12.07-.4,2.14,0-.64.32s-.75.6-.8.68l0,.06c.25.1.5.18.77.26.18-.1.47-.26.59-.35s1.38-.63,1.38-.63l.63,0a2.19,2.19,0,0,1,.59.18c.21.1.8.5,1.2.77a7.58,7.58,0,0,0,.8-.28l-.58-.59-.66-.38a12.63,12.63,0,0,1,2,.16l0,.08s-.36,0-.37.29a.27.27,0,0,0,.07.22,6.63,6.63,0,0,0,.79-.43h0v-.09h0v-.06l.14,0-.07-.35-.26-.14-.79-.22c-.17,0-2.61-.17-2.61-.17l-.06-.06V12.43l-.09,0V11.34H8.43v0l1.07-.21,1.28.21.14.12.54-.05v-.55l.57-.13a.6.6,0,0,0,.17-.3c.05-.19.1-1.33.1-1.33l.18-1.43,0-.55-.12-.34a2.18,2.18,0,0,0-.25-.14s.2-1.36.22-1.55S13,3.58,13,3.24a1.29,1.29,0,0,0-.23-.8l0-.11a3.44,3.44,0,0,0-.25-.28,3.83,3.83,0,0,1-.31-.59l-.12-.34A7.8,7.8,0,0,0,8.77,0a2.56,2.56,0,0,0-.19.47,5.44,5.44,0,0,1-.74,1.17S7.3,2,6.77,2.21A1,1,0,0,0,6.23,3.3,11,11,0,0,1,6.8,4.86a4.82,4.82,0,0,1-.51,1.37,9.59,9.59,0,0,0-.68,1.59,1.43,1.43,0,0,0,.28.92s-.17.3-.17.31-1.59-.73-1.59-.73l.08-.92L5,7.31l0-.18L4.83,7l-1.3-.22s-.83.16-.9.36.89.25.89.25v1a2.81,2.81,0,0,1-.29.23,2.62,2.62,0,0,0-.5,1.28c-.08.46.79.92.79.92s.41,0,.65,0,1.72.26,1.72.26v.11l.37.11.07-.14,1,.21a2.5,2.5,0,0,0-.08.45c0,.16.61.24.61.24l0,.27-.08,0-.06,1.18,0,.06-.05.09H5.05L3.9,14l-.14.37.12,0,0,.05a1.52,1.52,0,0,0-.27.06.46.46,0,0,0-.1.12Z"/></svg>