<svg id="Layer_1" data-name="Layer 1" xmlns="http://www.w3.org/2000/svg" viewBox="0 0 256 256"><defs><style>.cls-1{fill:#191919;}.cls-2{fill:#e5e5e5;}</style></defs><title>256</title><path class="cls-1" d="M252.5,127.47a124.61,124.61,0,0,1-70.3,112.12q-3.81,1.84-7.77,3.43a119.41,119.41,0,0,1-12.54,4.28,125.38,125.38,0,0,1-68.33-.15,122.56,122.56,0,0,1-12-4.12,120.94,120.94,0,0,1-12.36-5.78,119.25,119.25,0,0,1-11.56-7.05A124.5,124.5,0,0,1,128,3q6.09,0,12,.58A124.48,124.48,0,0,1,252.5,127.47Z"/><path class="cls-2" d="M69.22,237.25a7.16,7.16,0,0,0,1.3-2.22l-.44-2,1.09-6.19,33.41-.33-10,5s-11.63,9.38-12.49,10.58a5.58,5.58,0,0,0-.5.9,122.56,122.56,0,0,0,12,4.12c2.83-1.58,7.35-4.11,9.29-5.4,3-2,21.49-9.91,21.49-9.91l9.68.62a33.41,33.41,0,0,1,9.2,2.9c3.22,1.52,12.43,7.68,18.67,11.94A119.41,119.41,0,0,0,174.43,243l-9-9.23L155,227.88c8.81-.91,31.54,2.48,31.54,2.48l.24,1.28s-5.53.09-5.82,4.43a4.86,4.86,0,0,0,1.2,3.52,124,124,0,0,0,12.27-6.82l-.08-.08.24-1.38-.67-.09,0-.82,2.24-.47-1-5.44L191,222.3s-9.52-2.9-12.2-3.52-40.59-2.53-40.59-2.53l-1.06-1.05.25-18.82-1.48-.52-.1-16.34-1.1-.2.06-.66,16.58-3.3,20,3.25,2.1,1.91,8.38-.82-.19-8.52,9-2a9.66,9.66,0,0,0,2.52-4.61c.77-3.06,1.67-20.69,1.67-20.69l2.71-22.3.58-8.53s-1.71-5.09-1.82-5.38a30.31,30.31,0,0,0-3.85-2.1s3.1-21.25,3.38-24.11S205,58.73,206.21,53.38s-3.57-12.44-3.57-12.44L202,39.23a48.78,48.78,0,0,0-3.81-4.38c-1.24-1.1-4.91-9.1-4.91-9.1l-1.77-5.36A123.55,123.55,0,0,0,140,3.55a36.21,36.21,0,0,0-3,7.33c-1.3,5.31-11.53,18.2-11.53,18.2s-8.39,4.41-16.68,8.29-9.78,13.6-8.42,17,8.42,19.57,9,24.27-8,21.19-8,21.19-9.47,18.2-10.65,24.88,4.38,14.19,4.38,14.19-2.57,4.7-2.66,4.92-24.75-11.46-24.75-11.46L69,118.19l12.74-1.43.45-2.8-3.53-1.62L58.48,109s-13,2.51-14,5.62,13.88,3.88,13.88,3.88l-.15,15.15a53,53,0,0,1-4.61,3.68c-3.43,2.54-6.68,12.86-7.82,19.92s12.29,14.26,12.29,14.26,6.39-.25,10.14-.22S95,175.44,95,175.44l.2,1.68,5.74,1.64,1.12-2.13,15.17,3.22A36.36,36.36,0,0,0,116,187c0,2.48,9.51,3.67,9.51,3.67l-.32,4.14-1.24.38-1,18.42-.44.89-.86,1.3H82.15l-17.92,4.55L62,226.13l1.87.54-.5.7a20.36,20.36,0,0,0-4.17.92,6,6,0,0,0-1.55,1.91Z"/></svg>