<svg xmlns="http://www.w3.org/2000/svg" id="Layer_1" viewBox="0 0 500 500" width="500" height="500"><defs><style>.cls-1{fill:#161616}.cls-2{fill:none;stroke:#161616;stroke-linecap:round;stroke-linejoin:round;stroke-width:31px}</style></defs><path d="M447.5 153.22H127.2a24.42 24.42 0 0 0-23.38 31.47l29.4 97.54a18.2 18.2 0 0 0 17.42 12.94H422.1a18.2 18.2 0 0 0 17.32-12.62l31.33-97.43a24.42 24.42 0 0 0-23.25-31.9zM162 201.45a21.11 21.11 0 1 1 19.93 20 21.12 21.12 0 0 1-19.93-20zm52.5 73.91a21.12 21.12 0 1 1 18.84-18.85 21.12 21.12 0 0 1-18.8 18.85zm23.5-73.93a21.12 21.12 0 1 1 19.92 20 21.13 21.13 0 0 1-19.92-20zm50.33 74a21.11 21.11 0 1 1 21.13-21.11 21.11 21.11 0 0 1-21.13 21.15zm25.72-77.31a21.12 21.12 0 1 1 23.15 23.2 21.19 21.19 0 0 1-23.15-23.16zm48.06 77.2a21.12 21.12 0 1 1 23.21-23.17 21.18 21.18 0 0 1-23.21 23.21zm37.74-53.93a21.13 21.13 0 1 1 22.32-21.09 21.25 21.25 0 0 1-22.32 21.13z" class="cls-1"/><path d="M28.06 83.36h58.49l41.43 127.54" class="cls-2"/><circle cx="172.22" cy="402.11" r="34.87" class="cls-1"/><circle cx="402.48" cy="402.11" r="34.87" class="cls-1"/><path d="M437.35 340h-315l33.34-89.66" class="cls-2"/></svg>