<svg xmlns="http://www.w3.org/2000/svg" id="Layer_1" viewBox="0 0 500 500" width="500" height="500"><defs><style>.cls-1{fill:#161616}</style></defs><path d="M421 166.58l-.11.08c3.94 24.9.45 54.6-13.71 90C324.2 464 113.64 416.54 65.26 373.23c87.54-.46 120.25-32.72 120.25-32.72C115 327.61 109 283.38 109 283.38c17.88 1 30-.12 38.14-2-36.57-11.23-55.32-34.28-67.14-80.01a154 154 0 0 0 50 10.85c-1-.81-2-1.67-3-2.56-57.14-52.07-24-106.9-24-106.9s16 41.73 94.59 68.52c19.22 6.55 42.16 12.22 69.53 16.16a77.42 77.42 0 0 1 125.39-79.25c1.62 1.78 3.18 3.61 4.67 5.47.28 0 .57-.09.84-.16 22.3-4.29 52.17-20 52.17-20s-10.31 29.8-33.46 44.43c15.62-2.7 35.36-7.6 44.05-12.4A207.43 207.43 0 0 1 421 166.58z" class="cls-1"/></svg>